<svg xmlns="http://www.w3.org/2000/svg" viewBox="0 0 491 163">
  <g fill="#FFFFFF">
    <path d="M308.8,64.7c2.3,4.6,3.6,9.9,3.6,15.5v0.3c0,17.8-12.8,32.4-31.2,32.4c-8.6,0-16-3.2-21.5-8.5 l-17.9,14.4c9.7,9.3,23.3,15.1,39.1,15.1c32.1,0,55.5-24.2,55.5-53.8v-0.3c0-11.2-3.3-21.5-9.1-30.1L308.8,64.7z M225.7,80.2 v0.3c0,11.2,3.3,21.6,9.2,30.2l18.4-14.9c-2.3-4.6-3.6-9.9-3.6-15.5v-0.3c0-17.8,12.8-32.4,31.2-32.4c8.6,0,16.1,3.2,21.5,8.5 l17.9-14.4c-9.7-9.4-23.3-15.1-39.1-15.1C249.1,26.4,225.7,50.6,225.7,80.2"/>
    <path d="M441.2,85.6c-2.5,14.7-14.4,25.9-30.7,25.9 c-16.2,0-28.3-11.3-31-25.9h-24.2c2.9,26.3,24.9,46.7,54.9,46.7c0,0,0.1,0,0.1,0v0h65.5v-19.1h-10.2c-3.8,0-8.5,0.2-13.5,0.5 c7.1-7.8,11.9-17.5,13.2-28.1H441.2z M355.2,74.8h24c1.9-15.6,14-27.6,31-27.6c16.8,0,29.2,12.2,31.2,27.6h24.1 c-2.1-27.1-24.5-48.4-55-48.4C380.1,26.4,357.5,47.8,355.2,74.8"/>
    <polygon points="114.9,28.2 138.6,28.2 161,86.3 149.1,117.2 "/>
    <polygon points="154.9,132.2 194.8,28.2 218.6,28.2 178.6,132.2 "/>
    <path d="M53.3,28.2h45v20.3h-45V28.2z M53.3,69.6h38.4V90 H53.3V69.6z M19.8,28.2h22.7v104H19.8V28.2z M53.3,111.8h45.8v20.4H53.3V111.8z"/>
  </g>
</svg>
