<svg xmlns="http://www.w3.org/2000/svg" viewBox="0 0 100 100">
  <path fill="#D52B1E" d="M50 8l-3.7 6.9c-.4.8-1.2.7-1.9.3l-2.7-1.4 2 10.6c.4 2-1 2-1.6 1.1l-4.7-5.3-.8 2.7c-.1.4-.6.7-1.2.6l-3.5-.7 1.6 5.8c.3 1.2.6 1.7-.3 2.1l-2.1 1 10 8.1c.4.3.6.6.5 1.1l-.9 2.9c3.5-.4 6.6-1 10-1.4.3 0 .8.5.8.8l-.5 10.8h1.7l-.5-10.8c0-.3.5-.8.8-.8 3.4.4 6.5 1 10 1.4l-.9-2.9c-.1-.6.1-.8.5-1.1l10-8.1-2.1-1c-.9-.4-.6-.9-.3-2.1l1.6-5.8-3.5.7c-.6.1-1.1-.2-1.2-.6l-.8-2.7-4.7 5.3c-.7.9-2.1.9-1.6-1.1l2-10.6-2.7 1.4c-.7.4-1.5.5-1.9-.3z"/>
</svg>
